<?xml version="1.0" encoding="iso-8859-1"?>
<!-- Generator: Adobe Illustrator 19.0.0, SVG Export Plug-In . SVG Version: 6.00 Build 0)  -->
<svg version="1.1" id="Capa_1" xmlns="http://www.w3.org/2000/svg" xmlns:xlink="http://www.w3.org/1999/xlink" x="0px" y="0px"
	 viewBox="0 0 512 512" style="enable-background:new 0 0 512 512;" xml:space="preserve">
<circle style="fill:#F7F0E6;" cx="256" cy="256" r="256"/>
<path style="fill:#EEE2D4;" d="M238.897,424.135c0,9.283-7.979,16.761-17.214,15.82c-33.437-3.409-63.967-16.639-88.66-36.76
	c-7.172-5.844-7.475-16.742-0.933-23.284c-6.542,6.542-17.44,6.24-23.284-0.933c-20.121-24.693-33.352-55.224-36.76-88.66
	c-0.942-9.235,6.537-17.214,15.82-17.214c-9.283,0-16.761-7.979-15.82-17.214c3.409-33.437,16.639-63.967,36.76-88.66
	c5.844-7.172,16.742-7.475,23.284-0.933c-6.542-6.542-6.24-17.44,0.933-23.284c24.693-20.121,55.224-33.352,88.66-36.76
	c9.235-0.942,17.214,6.537,17.214,15.82c0-9.283,7.979-16.761,17.214-15.82c33.437,3.409,63.967,16.639,88.66,36.76
	c7.172,5.844,7.475,16.742,0.933,23.284c6.542-6.542,17.44-6.24,23.284,0.933c20.121,24.693,33.352,55.224,36.76,88.66
	c0.941,9.235-6.537,17.214-15.82,17.214c9.283,0,16.761,7.979,15.82,17.214c-3.409,33.437-16.639,63.967-36.76,88.66
	c-5.844,7.172-16.742,7.475-23.284,0.933c6.542,6.542,6.24,17.44-0.933,23.284c-24.693,20.121-55.224,33.352-88.66,36.76
	C246.876,440.897,238.897,433.418,238.897,424.135z"/>
<path style="fill:#FFBE50;" d="M256,407.032c0,9.283-7.979,16.761-17.214,15.82c-33.437-3.409-63.967-16.639-88.66-36.76
	c-7.172-5.844-7.475-16.742-0.933-23.284c-6.542,6.542-17.44,6.24-23.284-0.933c-20.121-24.693-33.352-55.224-36.76-88.66
	C88.207,263.979,95.685,256,104.968,256c-9.283,0-16.761-7.979-15.82-17.214c3.409-33.437,16.639-63.967,36.76-88.66
	c5.844-7.172,16.742-7.475,23.284-0.933c-6.542-6.542-6.24-17.44,0.933-23.284c24.693-20.121,55.224-33.352,88.66-36.76
	c9.235-0.942,17.214,6.537,17.214,15.82c0-9.283,7.979-16.761,17.214-15.82c33.437,3.409,63.967,16.639,88.66,36.76
	c7.172,5.844,7.475,16.742,0.933,23.284c6.542-6.542,17.44-6.24,23.284,0.933c20.121,24.693,33.352,55.224,36.76,88.66
	c0.941,9.235-6.537,17.214-15.82,17.214c9.283,0,16.761,7.979,15.82,17.214c-3.409,33.437-16.639,63.967-36.76,88.66
	c-5.844,7.172-16.742,7.475-23.284,0.933c6.542,6.542,6.24,17.44-0.933,23.284c-24.693,20.121-55.224,33.352-88.66,36.76
	C263.979,423.793,256,416.315,256,407.032z"/>
<path style="fill:#FFA55F;" d="M320.735,361.29c-93.902,0-170.026-76.123-170.026-170.026c0-28.76,7.203-55.816,19.808-79.564
	c-7.151,4.246-13.977,8.982-20.392,14.209c-7.172,5.844-7.475,16.742-0.932,23.284c-6.543-6.542-17.44-6.24-23.284,0.933
	c-20.121,24.693-33.352,55.224-36.76,88.66C88.207,248.02,95.685,256,104.968,256c-9.283,0-16.761,7.979-15.82,17.214
	c3.408,33.436,16.639,63.967,36.76,88.66c5.844,7.172,16.742,7.475,23.284,0.933c-6.543,6.542-6.24,17.44,0.932,23.284
	c24.693,20.121,55.224,33.351,88.661,36.76c9.235,0.942,17.214-6.537,17.214-15.819c0,9.283,7.979,16.761,17.214,15.819
	c33.437-3.409,63.967-16.639,88.661-36.76c7.172-5.844,7.475-16.742,0.932-23.284c6.543,6.542,17.44,6.24,23.284-0.933
	c5.227-6.415,9.963-13.241,14.209-20.392C376.552,354.087,349.496,361.29,320.735,361.29z"/>
<path style="fill:#FFCD6E;" d="M367.17,226.206c-2.725-10.195,1.039-23.085-4.124-32.011c-5.238-9.054-18.334-12.208-25.682-19.555
	l-19.556-25.684c-8.926-5.165-21.818-1.401-32.013-4.126c-9.854-2.634-19.11-12.416-29.794-12.416s-19.94,9.783-29.794,12.416
	c-10.194,2.725-23.085-1.04-32.011,4.124c-9.054,5.238-12.208,18.334-19.555,25.682c-7.349,7.348-20.445,10.502-25.684,19.556
	c-5.164,8.926-1.4,21.818-4.126,32.013c-2.634,9.854-12.417,19.11-12.417,29.794c0,10.684,9.783,19.94,12.416,29.794
	c2.725,10.194-1.039,23.085,4.124,32.011c5.238,9.053,18.334,12.207,25.682,19.556l19.556,25.683
	c8.926,5.165,21.818,1.401,32.013,4.126c9.854,2.634,19.11,12.417,29.794,12.417c10.684,0,19.94-9.783,29.794-12.417
	c10.194-2.725,23.085,1.04,32.011-4.124c9.054-5.238,12.208-18.334,19.556-25.682c7.349-7.348,20.444-10.502,25.684-19.556
	c5.164-8.926,1.4-21.818,4.126-32.013c2.634-9.854,12.417-19.11,12.417-29.794S369.803,236.06,367.17,226.206z"/>
<path style="fill:#AA735F;" d="M349.303,230.995c-2.287-8.556,0.872-19.375-3.462-26.866c-4.396-7.599-15.388-10.246-21.554-16.413
	l-16.413-21.556c-7.492-4.335-18.312-1.176-26.868-3.463c-8.27-2.21-16.039-10.421-25.006-10.421s-16.735,8.211-25.005,10.421
	c-8.556,2.287-19.375-0.873-26.866,3.462c-7.599,4.396-10.246,15.387-16.413,21.554c-6.168,6.167-17.159,8.814-21.556,16.413
	c-4.334,7.492-1.175,18.312-3.463,26.868c-2.211,8.27-10.421,16.039-10.421,25.006c0,8.967,8.211,16.735,10.421,25.005
	c2.287,8.556-0.872,19.375,3.462,26.866c4.396,7.598,15.387,10.246,21.554,16.413l16.413,21.556
	c7.492,4.335,18.312,1.176,26.868,3.463c8.27,2.211,16.039,10.421,25.006,10.421s16.735-8.211,25.005-10.421
	c8.556-2.287,19.375,0.873,26.866-3.461c7.599-4.396,10.246-15.388,16.413-21.554c6.168-6.167,17.159-8.814,21.556-16.413
	c4.334-7.492,1.175-18.312,3.462-26.868c2.211-8.27,10.421-16.039,10.421-25.006C359.724,247.033,351.514,239.264,349.303,230.995z"
	/>
<g>
	<circle style="fill:#BF865B;" cx="241.67" cy="252.33" r="36.792"/>
	<circle style="fill:#BF865B;" cx="287.34" cy="275.08" r="21.11"/>
	<circle style="fill:#BF865B;" cx="212.59" cy="203.07" r="12.01"/>
	<circle style="fill:#BF865B;" cx="293.96" cy="198.94" r="20.669"/>
	<circle style="fill:#BF865B;" cx="226.73" cy="319.77" r="20.669"/>
</g>
<circle style="fill:#FFDC8C;" cx="220.69" cy="220.69" r="17.655"/>
<path style="fill:#FF6464;" d="M192.543,297.931c-1.991,0-3.991-0.672-5.647-2.043c-3.741-3.121-4.25-8.69-1.129-12.44l5.517-6.621
	c3.129-3.741,8.681-4.25,12.44-1.129c3.741,3.121,4.25,8.69,1.129,12.44l-5.517,6.621
	C197.586,296.853,195.078,297.931,192.543,297.931z"/>
<path style="fill:#C89673;" d="M242.552,344.862c-4.534,0-8.397-3.474-8.784-8.078l-1.655-19.31
	c-0.422-4.853,3.181-9.129,8.043-9.543c4.784-0.552,9.129,3.181,9.543,8.043l1.655,19.31c0.422,4.853-3.181,9.129-8.043,9.543
	C243.06,344.853,242.802,344.862,242.552,344.862z"/>
<path style="fill:#FF6464;" d="M303.457,262.621c-0.638,0-1.276-0.069-1.922-0.207l-14.897-3.31
	c-4.759-1.06-7.759-5.776-6.707-10.534c1.06-4.759,5.819-7.707,10.534-6.707l14.897,3.31c4.759,1.06,7.759,5.776,6.707,10.534
	C311.155,259.819,307.5,262.621,303.457,262.621z"/>
<path style="fill:#FFBE50;" d="M276.957,197.517c-4.707,0-8.621-3.724-8.81-8.474l-0.552-13.793
	c-0.198-4.871,3.595-8.983,8.466-9.172c4.802-0.491,8.974,3.595,9.172,8.466l0.552,13.793c0.198,4.871-3.595,8.983-8.466,9.172
	C277.198,197.517,277.078,197.517,276.957,197.517z"/>
<path style="fill:#C89673;" d="M317.784,225.655c-1.569,0-3.155-0.414-4.595-1.293l-9.931-6.069
	c-4.164-2.543-5.474-7.974-2.931-12.138c2.543-4.155,7.974-5.474,12.138-2.931l9.931,6.069c4.164,2.543,5.474,7.974,2.931,12.138
	C323.664,224.155,320.759,225.655,317.784,225.655z"/>
<g>
	<path style="fill:#FFBE50;" d="M328.284,284.138c-0.741,0-1.491-0.095-2.233-0.284c-4.724-1.233-7.552-6.052-6.319-10.767
		l3.31-12.69c1.233-4.724,6.121-7.517,10.767-6.319c4.724,1.233,7.552,6.052,6.319,10.767l-3.31,12.69
		C335.784,281.509,332.198,284.138,328.284,284.138z"/>
	<path style="fill:#FFBE50;" d="M237.241,280.828c-2.259,0-4.517-0.862-6.241-2.586c-3.448-3.448-3.448-9.034,0-12.483l4.414-4.414
		c3.448-3.448,9.034-3.448,12.483,0c3.448,3.448,3.448,9.034,0,12.483l-4.414,4.414C241.759,279.966,239.5,280.828,237.241,280.828z
		"/>
</g>
<path style="fill:#C89673;" d="M177.647,256.552c-4.121,0-7.81-2.897-8.647-7.095l-2.207-11.034
	c-0.957-4.784,2.147-9.431,6.922-10.388c4.845-0.983,9.44,2.147,10.388,6.922l2.207,11.034c0.957,4.784-2.147,9.431-6.922,10.388
	C178.802,256.5,178.216,256.552,177.647,256.552z"/>
<path style="fill:#FFBE50;" d="M203.121,326.621c-4.879,0-8.871-3.948-8.871-8.828c0-4.879,3.905-8.828,8.784-8.828h0.086
	c4.879,0,8.828,3.948,8.828,8.828C211.948,322.672,208,326.621,203.121,326.621z"/>
<g>
	<path style="fill:#FF6464;" d="M239.534,184.828c-4.879,0-8.871-3.948-8.871-8.828s3.905-8.828,8.784-8.828h0.086
		c4.879,0,8.828,3.948,8.828,8.828S244.414,184.828,239.534,184.828z"/>
	<path style="fill:#FF6464;" d="M326.707,318.345c-4.879,0-8.871-3.948-8.871-8.828s3.905-8.828,8.784-8.828h0.086
		c4.879,0,8.828,3.948,8.828,8.828S331.586,318.345,326.707,318.345z"/>
</g>
<g>
	<path style="fill:#C89673;" d="M267.672,232.828c-4.879,0-8.871-3.948-8.871-8.828s3.905-8.828,8.784-8.828h0.086
		c4.879,0,8.828,3.948,8.828,8.828S272.552,232.828,267.672,232.828z"/>
	<path style="fill:#C89673;" d="M264.914,350.345c-4.879,0-8.871-3.948-8.871-8.828s3.905-8.828,8.784-8.828h0.086
		c4.879,0,8.828,3.948,8.828,8.828S269.793,350.345,264.914,350.345z"/>
</g>
<path style="fill:#FFBE50;" d="M86.078,384.552c-2.69,0-5.336-1.216-7.069-3.534l-4.966-6.621
	c-2.931-3.897-2.138-9.431,1.767-12.353c3.897-2.931,9.431-2.147,12.353,1.767l4.966,6.621c2.931,3.897,2.138,9.431-1.767,12.353
	C89.776,383.974,87.922,384.552,86.078,384.552z"/>
<g>
	<path style="fill:#FF6464;" d="M119.733,410.483c-2.759,0-5.466-1.284-7.19-3.698l-2.759-3.862
		c-2.836-3.966-1.914-9.483,2.052-12.31c3.966-2.836,9.474-1.914,12.31,2.052l2.759,3.862c2.836,3.966,1.914,9.483-2.052,12.31
		C123.302,409.948,121.509,410.483,119.733,410.483z"/>
	<path style="fill:#FF6464;" d="M60.147,324.414c-3.388,0-6.612-1.948-8.078-5.241c-1.974-4.457,0.026-9.672,4.483-11.655
		l4.966-2.207c4.474-1.966,9.672,0.026,11.655,4.483c1.974,4.457-0.026,9.672-4.483,11.655l-4.966,2.207
		C62.56,324.172,61.345,324.414,60.147,324.414z"/>
	<path style="fill:#FF6464;" d="M342.06,71.724c-1.328,0-2.672-0.302-3.94-0.931l-8.828-4.414
		c-4.362-2.181-6.129-7.483-3.948-11.845c2.19-4.362,7.483-6.112,11.845-3.948L346.017,55c4.362,2.181,6.129,7.483,3.948,11.845
		C348.414,69.94,345.302,71.724,342.06,71.724z"/>
</g>
<path style="fill:#FFBE50;" d="M361.922,101.517c-1.543,0-3.112-0.405-4.534-1.259c-4.181-2.509-5.534-7.931-3.026-12.112
	l3.31-5.517c2.509-4.181,7.922-5.534,12.112-3.026c4.181,2.509,5.534,7.931,3.026,12.112l-3.31,5.517
	C367.845,99.991,364.922,101.517,361.922,101.517z"/>
<path style="fill:#FF6464;" d="M410.474,124.69c-1.543,0-3.112-0.405-4.534-1.259l-5.517-3.31
	c-4.181-2.509-5.534-7.931-3.026-12.112c2.509-4.181,7.922-5.534,12.112-3.026l5.517,3.31c4.181,2.509,5.534,7.931,3.026,12.112
	C416.397,123.164,413.474,124.69,410.474,124.69z"/>
<g>
	<path style="fill:#FFBE50;" d="M439.164,193.103c-4.121,0-7.81-2.897-8.647-7.095l-1.103-5.517
		c-0.957-4.784,2.147-9.431,6.922-10.388c4.845-1,9.44,2.147,10.388,6.922l1.103,5.517c0.957,4.784-2.147,9.431-6.922,10.388
		C440.319,193.052,439.733,193.103,439.164,193.103z"/>
	<path style="fill:#FFBE50;" d="M126.905,109.241c-2.853,0-5.655-1.379-7.353-3.931c-2.707-4.06-1.612-9.534,2.448-12.241
		l3.31-2.207c4.06-2.707,9.543-1.612,12.241,2.448c2.707,4.06,1.612,9.534-2.448,12.241l-3.31,2.207
		C130.284,108.759,128.586,109.241,126.905,109.241z"/>
	<path style="fill:#FFBE50;" d="M334.345,448h-4.414c-4.879,0-8.828-3.948-8.828-8.828c0-4.879,3.948-8.828,8.828-8.828h4.414
		c4.879,0,8.828,3.948,8.828,8.828C343.172,444.052,339.224,448,334.345,448z"/>
</g>
<path style="fill:#FF6464;" d="M366.336,429.241c-1.328,0-2.672-0.302-3.94-0.931c-4.362-2.181-6.129-7.483-3.948-11.845
	l2.207-4.414c2.19-4.362,7.474-6.112,11.845-3.948c4.362,2.181,6.129,7.483,3.948,11.845l-2.207,4.414
	C372.69,427.457,369.578,429.241,366.336,429.241z"/>
<path style="fill:#FFCD6E;" d="M229.517,229.517c-9.751,0-17.655-7.905-17.655-17.655c0-2.587,0.587-5.026,1.587-7.24
	c-6.13,2.768-10.415,8.904-10.415,16.068c0,9.751,7.905,17.655,17.655,17.655c7.163,0,13.3-4.284,16.068-10.415
	C234.544,228.93,232.105,229.517,229.517,229.517z"/>
<circle style="fill:#FFDC8C;" cx="282.3" cy="300.32" r="17.655"/>
<path style="fill:#FFCD6E;" d="M291.126,309.149c-9.751,0-17.655-7.905-17.655-17.655c0-2.587,0.587-5.026,1.587-7.24
	c-6.13,2.768-10.415,8.904-10.415,16.068c0,9.751,7.905,17.655,17.655,17.655c7.163,0,13.3-4.284,16.068-10.415
	C296.153,308.562,293.714,309.149,291.126,309.149z"/>
<g>
</g>
<g>
</g>
<g>
</g>
<g>
</g>
<g>
</g>
<g>
</g>
<g>
</g>
<g>
</g>
<g>
</g>
<g>
</g>
<g>
</g>
<g>
</g>
<g>
</g>
<g>
</g>
<g>
</g>
</svg>
